<svg width="58" height="58" viewBox="0 0 58 58" fill="none" xmlns="http://www.w3.org/2000/svg">
<path d="M29 4.83337C15.66 4.83337 4.83333 15.66 4.83333 29C4.83333 42.34 15.66 53.1667 29 53.1667C42.34 53.1667 53.1667 42.34 53.1667 29C53.1667 15.66 42.34 4.83337 29 4.83337ZM19.3333 42.2917C15.9983 42.2917 13.2917 39.585 13.2917 36.25C13.2917 32.915 15.9983 30.2084 19.3333 30.2084C22.6683 30.2084 25.375 32.915 25.375 36.25C25.375 39.585 22.6683 42.2917 19.3333 42.2917ZM22.9583 19.3334C22.9583 15.9984 25.665 13.2917 29 13.2917C32.335 13.2917 35.0417 15.9984 35.0417 19.3334C35.0417 22.6684 32.335 25.375 29 25.375C25.665 25.375 22.9583 22.6684 22.9583 19.3334ZM38.6667 42.2917C35.3317 42.2917 32.625 39.585 32.625 36.25C32.625 32.915 35.3317 30.2084 38.6667 30.2084C42.0017 30.2084 44.7083 32.915 44.7083 36.25C44.7083 39.585 42.0017 42.2917 38.6667 42.2917Z" fill="#464646"/>
</svg>
