<svg width="62" height="62" viewBox="0 0 62 62" fill="none" xmlns="http://www.w3.org/2000/svg">
<path d="M40.5 28C44.65 28 47.975 24.65 47.975 20.5C47.975 16.35 44.65 13 40.5 13C36.35 13 33 16.35 33 20.5C33 24.65 36.35 28 40.5 28ZM20.5 28C24.65 28 27.975 24.65 27.975 20.5C27.975 16.35 24.65 13 20.5 13C16.35 13 13 16.35 13 20.5C13 24.65 16.35 28 20.5 28ZM20.5 33C14.675 33 3 35.925 3 41.75V48H38V41.75C38 35.925 26.325 33 20.5 33ZM40.5 33C39.775 33 38.95 33.05 38.075 33.125C40.975 35.225 43 38.05 43 41.75V48H58V41.75C58 35.925 46.325 33 40.5 33Z" fill="#464646"/>
</svg>
