<svg width="54" height="54" viewBox="0 0 54 54" fill="none" xmlns="http://www.w3.org/2000/svg">
<g clip-path="url(#clip0)">
<path d="M34.83 22.3875C35.2125 22.4325 35.595 22.5 36 22.5C40.9725 22.5 45 18.4725 45 13.5C45 8.52748 40.9725 4.49998 36 4.49998C31.0275 4.49998 27 8.52748 27 13.5C27 13.905 27.0675 14.2875 27.1125 14.67L34.83 22.3875ZM39.8025 27.36L52.9425 40.5H54V36C54 31.185 45.99 28.125 39.8025 27.36ZM2.25 2.51998L17.73 18L22.23 22.5L27.8775 28.1475C22.9275 29.4975 18 32.175 18 36V40.5H40.23L49.23 49.5L52.4025 46.3275L5.4225 -0.652517L2.25 2.51998Z" fill="#464646"/>
<path d="M6.75 24.75H24.75L20.25 20.25H6.75V24.75Z" fill="#464646"/>
</g>
<defs>
<clipPath id="clip0">
<rect width="54" height="54" fill="white"/>
</clipPath>
</defs>
</svg>
