<svg width="63" height="64" viewBox="0 0 63 64" fill="none" xmlns="http://www.w3.org/2000/svg">
<g filter="url(#filter0_d)">
<path d="M40.4334 45.193L47.1334 38.1404V26.386L29.2668 45.193H40.4334Z" fill="white"/>
<path d="M4.7469 0.575685C4.7469 0.575685 24.8 0.526318 40.4333 16.9825C47.111 24.0116 47.1333 35.7895 42.6667 40.4912C38.2 45.193 27.011 45.1695 20.3333 38.1404C4.7 21.6842 4.7469 0.575685 4.7469 0.575685ZM27.0333 19.3333C27.0333 16.7356 25.0345 14.6316 22.5667 14.6316C20.0988 14.6316 18.1 16.7356 18.1 19.3333C18.1 21.9311 20.0988 24.0351 22.5667 24.0351C25.0345 24.0351 27.0333 21.9311 27.0333 19.3333Z" fill="white"/>
<path d="M22.9888 37.3787C22.9888 37.3787 21.2982 46.2744 24.6795 49.8313C29.7491 55.1678 38.2001 56.9474 38.2001 56.9474L35.9667 40.4912L22.9888 37.3787Z" fill="white"/>
<path d="M39.7098 19.7777C39.7098 19.7777 48.1607 17.998 51.5397 21.5573C56.6094 26.8938 58.3 35.7895 58.3 35.7895L42.6667 33.4386L39.7098 19.7777Z" fill="white"/>
<path d="M43.6896 45.9923C43.7901 46.1427 43.8504 46.3167 43.9799 46.4507C46.1574 48.7428 49.4248 47.5979 49.4248 47.5979C49.4248 47.5979 50.5146 44.1586 48.3349 41.8665C48.2054 41.7301 48.0423 41.669 47.8994 41.5609L48.92 40.4842C49.7687 40.7193 50.5749 41.1659 51.2382 41.8641C54.289 45.0754 53.8043 52.208 53.8043 52.208C53.8043 52.208 47.0686 52.7605 43.9777 49.5068C43.3144 48.8086 42.89 47.96 42.6667 47.0666L43.6896 45.9923Z" fill="#ED553B"/>
</g>
<defs>
<filter id="filter0_d" x="0.746948" y="0.575684" width="61.5532" height="64.3717" filterUnits="userSpaceOnUse" color-interpolation-filters="sRGB">
<feFlood flood-opacity="0" result="BackgroundImageFix"/>
<feColorMatrix in="SourceAlpha" type="matrix" values="0 0 0 0 0 0 0 0 0 0 0 0 0 0 0 0 0 0 127 0"/>
<feOffset dy="4"/>
<feGaussianBlur stdDeviation="2"/>
<feColorMatrix type="matrix" values="0 0 0 0 0 0 0 0 0 0 0 0 0 0 0 0 0 0 0.25 0"/>
<feBlend mode="normal" in2="BackgroundImageFix" result="effect1_dropShadow"/>
<feBlend mode="normal" in="SourceGraphic" in2="effect1_dropShadow" result="shape"/>
</filter>
</defs>
</svg>
