<svg width="140" height="70" viewBox="0 0 140 70" fill="none" xmlns="http://www.w3.org/2000/svg">
<path fill-rule="evenodd" clip-rule="evenodd" d="M134.672 26.7878C138.189 18.2951 140 9.19254 140 7.62939e-06V70H70C79.1925 70 88.295 68.1894 96.7878 64.6716C105.281 61.1537 112.997 55.9976 119.497 49.4975C125.998 42.9974 131.154 35.2806 134.672 26.7878ZM56.1475 6.11959e-06L140 7.62939e-06H70L56.1475 6.11959e-06ZM0 0V70H70C60.8075 70 51.7049 68.1894 43.2122 64.6716C34.7194 61.1537 27.0026 55.9976 20.5025 49.4975C14.0024 42.9974 8.84626 35.2806 5.32843 26.7878C1.8106 18.2951 0 9.19253 0 0Z" fill="white"/>
</svg>
