<svg width="149" height="50" viewBox="0 0 149 50" fill="none" xmlns="http://www.w3.org/2000/svg">
<path d="M66.8726 13.14H58.2326V27H54.0926V13.14L46.2026 13.14V9.75L66.8726 9.75V13.14ZM70.7733 9.75H80.3733V13.29H74.5533V16.68H80.3733V20.1H74.5533V23.61H80.2533V27H70.7733V9.75ZM81.8433 23.61V27H91.4433V23.61H81.8433ZM91.4433 13.29V9.75H81.7233V13.29H91.4433ZM86.5833 20.1V16.68H81.7233V20.1H86.5833ZM102.853 21.18L96.6434 27L93.2534 25.92L101.173 18.39L93.2534 10.86L96.6434 9.75L102.853 15.57V21.18ZM105.883 18.39L113.923 25.92L110.413 27L104.203 21.18V15.57L110.413 9.75L113.923 10.86L105.883 18.39ZM136.394 13.14H127.754V27H123.614V13.14H115.724V9.75H136.394V13.14Z" fill="white"/>
<path d="M60.1385 41.8594L58.3305 42.9474H55.0185V41.1394H58.1225V33.7474H60.1385V41.8594ZM51.1945 40.0354V41.1394H54.2345V42.9474H50.9865L49.1145 41.8594V40.0354H51.1945ZM63.1795 33.7474H68.2995V35.6354H65.1955V37.4434H68.2995V39.2674H65.1955V41.1394H68.2355V42.9474H63.1795V33.7474ZM69.0835 41.1394V42.9474H74.2035V41.1394H69.0835ZM74.2035 35.6354V33.7474H69.0195V35.6354H74.2035ZM71.6115 39.2674V37.4434H69.0195V39.2674H71.6115ZM86.1929 35.5554H81.5849V42.9474H79.3769V35.5554H75.1689V33.7474H86.1929V35.5554Z" fill="white"/>
<path d="M26.5985 38.2457L30.6855 33.8378V26.4913L19.7869 38.2457H26.5985Z" fill="white"/>
<path d="M4.82988 10.3598C4.82988 10.3598 17.0622 10.3289 26.5985 20.614C30.6718 25.0072 30.6854 32.3684 27.9608 35.307C25.2361 38.2456 18.4109 38.2309 14.3375 33.8377C4.80127 23.5526 4.82988 10.3598 4.82988 10.3598ZM18.4245 22.0833C18.4245 20.4598 17.2052 19.1447 15.6999 19.1447C14.1945 19.1447 12.9752 20.4598 12.9752 22.0833C12.9752 23.7069 14.1945 25.0219 15.6999 25.0219C17.2052 25.0219 18.4245 23.7069 18.4245 22.0833Z" fill="white"/>
<path d="M15.9574 33.3617C15.9574 33.3617 14.9261 38.9215 16.9886 41.1446C20.0811 44.4799 25.2361 45.5921 25.2361 45.5921L23.8738 35.307L15.9574 33.3617Z" fill="white"/>
<path d="M26.1571 22.3611C26.1571 22.3611 31.3121 21.2488 33.3733 23.4733C36.4658 26.8086 37.4971 32.3685 37.4971 32.3685L27.9608 30.8992L26.1571 22.3611Z" fill="white"/>
<path d="M28.5848 38.7452C28.6461 38.8392 28.6828 38.9479 28.7619 39.0317C30.0901 40.4643 32.0832 39.7487 32.0832 39.7487C32.0832 39.7487 32.748 37.5991 31.4184 36.1666C31.3394 36.0813 31.2399 36.0431 31.1527 35.9756L31.7753 35.3026C32.293 35.4495 32.7848 35.7287 33.1894 36.1651C35.0503 38.1721 34.7547 42.63 34.7547 42.63C34.7547 42.63 30.646 42.9753 28.7605 40.9418C28.3559 40.5054 28.097 39.975 27.9608 39.4166L28.5848 38.7452Z" fill="#ED553B"/>
</svg>
