<svg width="25" height="25" viewBox="0 0 25 25" fill="none" xmlns="http://www.w3.org/2000/svg">
<path d="M20.2396 13.521C20.2813 13.1877 20.3125 12.8543 20.3125 12.5002C20.3125 12.146 20.2813 11.8127 20.2396 11.4793L22.4375 9.76058C22.6354 9.60433 22.6875 9.32308 22.5625 9.09391L20.4792 5.48975C20.3854 5.32308 20.2083 5.22933 20.0208 5.22933C19.9583 5.22933 19.8959 5.23975 19.8438 5.26058L17.25 6.30225C16.7084 5.88558 16.125 5.54183 15.4896 5.28141L15.0938 2.521C15.0625 2.271 14.8438 2.0835 14.5834 2.0835H10.4167C10.1563 2.0835 9.93752 2.271 9.90627 2.521L9.51043 5.28141C8.87502 5.54183 8.29168 5.896 7.75002 6.30225L5.15627 5.26058C5.09377 5.23975 5.03127 5.22933 4.96877 5.22933C4.79168 5.22933 4.6146 5.32308 4.52085 5.48975L2.43752 9.09391C2.3021 9.32308 2.3646 9.60433 2.56252 9.76058L4.76043 11.4793C4.71877 11.8127 4.68752 12.1564 4.68752 12.5002C4.68752 12.8439 4.71877 13.1877 4.76043 13.521L2.56252 15.2397C2.3646 15.396 2.31252 15.6772 2.43752 15.9064L4.52085 19.5106C4.6146 19.6772 4.79168 19.771 4.97918 19.771C5.04168 19.771 5.10418 19.7606 5.15627 19.7397L7.75002 18.6981C8.29168 19.1147 8.87502 19.4585 9.51043 19.7189L9.90627 22.4793C9.93752 22.7293 10.1563 22.9168 10.4167 22.9168H14.5834C14.8438 22.9168 15.0625 22.7293 15.0938 22.4793L15.4896 19.7189C16.125 19.4585 16.7084 19.1043 17.25 18.6981L19.8438 19.7397C19.9063 19.7606 19.9688 19.771 20.0313 19.771C20.2084 19.771 20.3854 19.6772 20.4792 19.5106L22.5625 15.9064C22.6875 15.6772 22.6354 15.396 22.4375 15.2397L20.2396 13.521ZM18.1771 11.7397C18.2188 12.0627 18.2292 12.2814 18.2292 12.5002C18.2292 12.7189 18.2084 12.9481 18.1771 13.2606L18.0313 14.4377L18.9584 15.1668L20.0834 16.0418L19.3542 17.3022L18.0313 16.771L16.9479 16.3335L16.0104 17.0418C15.5625 17.3752 15.1354 17.6252 14.7084 17.8022L13.6042 18.2502L13.4375 19.4272L13.2292 20.8335H11.7709L11.5729 19.4272L11.4063 18.2502L10.3021 17.8022C9.85418 17.6147 9.43752 17.3752 9.02085 17.0627L8.07293 16.3335L6.96877 16.7814L5.64585 17.3127L4.91668 16.0522L6.04168 15.1772L6.96877 14.4481L6.82293 13.271C6.79168 12.9481 6.77085 12.7085 6.77085 12.5002C6.77085 12.2918 6.79168 12.0522 6.82293 11.7397L6.96877 10.5627L6.04168 9.8335L4.91668 8.9585L5.64585 7.69808L6.96877 8.22933L8.0521 8.66683L8.9896 7.9585C9.43752 7.62516 9.8646 7.37516 10.2917 7.19808L11.3959 6.75016L11.5625 5.57308L11.7709 4.16683H13.2188L13.4167 5.57308L13.5834 6.75016L14.6875 7.19808C15.1354 7.38558 15.5521 7.62516 15.9688 7.93766L16.9167 8.66683L18.0209 8.21891L19.3438 7.68766L20.0729 8.94808L18.9584 9.8335L18.0313 10.5627L18.1771 11.7397ZM12.5 8.3335C10.1979 8.3335 8.33335 10.1981 8.33335 12.5002C8.33335 14.8022 10.1979 16.6668 12.5 16.6668C14.8021 16.6668 16.6667 14.8022 16.6667 12.5002C16.6667 10.1981 14.8021 8.3335 12.5 8.3335ZM12.5 14.5835C11.3542 14.5835 10.4167 13.646 10.4167 12.5002C10.4167 11.3543 11.3542 10.4168 12.5 10.4168C13.6459 10.4168 14.5834 11.3543 14.5834 12.5002C14.5834 13.646 13.6459 14.5835 12.5 14.5835Z" fill="white"/>
</svg>
